<?xml version="1.0" standalone="no"?>
<!DOCTYPE svg PUBLIC "-//W3C//DTD SVG 20010904//EN"
 "http://www.w3.org/TR/2001/REC-SVG-20010904/DTD/svg10.dtd">
<svg version="1.0" xmlns="http://www.w3.org/2000/svg"
 width="1024.000000pt" height="577.000000pt" viewBox="0 0 1024.000000 577.000000"
 preserveAspectRatio="xMidYMid meet">

<g transform="translate(0.000000,577.000000) scale(0.100000,-0.100000)"
fill="#000000" stroke="none">
<path d="M4 5755 c-2 -5 -3 -1300 -2 -2878 l3 -2867 5113 -3 5112 -2 0 2873
c0 1579 0 2875 0 2878 0 11 -10222 10 -10226 -1z m5241 -2380 l88 -147 -19
-32 c-10 -18 -89 -155 -174 -304 l-155 -271 -182 -1 c-101 0 -183 4 -183 9 0
7 208 367 467 809 30 51 58 90 62 88 4 -3 47 -71 96 -151z m143 -357 c55 -89
343 -561 453 -744 11 -17 19 -34 19 -38 0 -3 -83 -6 -184 -6 l-184 0 -178 292
c-97 161 -177 297 -177 303 0 14 166 305 175 305 4 0 38 -51 76 -112z m-55
-579 c48 -83 87 -155 87 -160 0 -5 -212 -9 -521 -9 -314 0 -519 4 -517 9 2 5
39 77 83 160 l80 151 351 0 350 0 87 -151z"/>
</g>
</svg>
